<svg id="Layer_1" enable-background="new 0 0 512 512" height="512" viewBox="0 0 512 512" width="512" xmlns="http://www.w3.org/2000/svg"><g><circle cx="63.2" cy="63.2" fill="#78493c" r="63.2"/><circle cx="448.8" cy="63.2" fill="#502f28" r="63.2"/><path d="m256 0c-141.385 0-256 114.615-256 256v128.533c0 8.284 6.716 15 15 15h33.2v97.467c0 8.284 6.716 15 15 15h385.6c8.284 0 15-6.716 15-15v-97.467h33.2c8.284 0 15-6.716 15-15v-128.533c0-141.385-114.615-256-256-256z" fill="#a06450"/><path d="m448.8 512c8.284 0 15-6.716 15-15v-97.467h33.2c8.284 0 15-6.716 15-15v-128.533c0-141.385-114.615-256-256-256v512z" fill="#78493c"/><circle clip-rule="evenodd" cx="207.8" cy="127.467" fill="#502f28" fill-rule="evenodd" r="15"/><circle clip-rule="evenodd" cx="304.2" cy="127.467" fill="#281414" fill-rule="evenodd" r="15"/><path d="m304.2 192.8h-24.1c0 13.303-10.797 24.1-24.1 24.1s-24.1-10.797-24.1-24.1h-24.1c-52.731 0-95.333 42.68-95.333 95.333 0 52.745 42.682 95.333 95.333 95.333h96.4c52.746 0 95.333-42.691 95.333-95.333 0-52.738-42.687-95.333-95.333-95.333z" fill="#e0e0e2"/><path d="m304.2 383.467c52.746 0 95.333-42.691 95.333-95.333 0-52.739-42.687-95.333-95.333-95.333h-24.1c0 13.303-10.797 24.1-24.1 24.1v166.567h48.2z" fill="#ccced0"/><path d="m264.033 287.067h-16.066c-46.596 0-55.167-42.624-55.167-54.211 0-23.959 15.713-40.056 39.101-40.056h48.199c23.388 0 39.101 16.097 39.101 40.056-.001 13.248-9.836 54.211-55.168 54.211z" fill="#502f28"/><path d="m256 287.067h8.033c45.332 0 55.167-40.963 55.167-54.211 0-23.959-15.713-40.056-39.101-40.056h-24.099z" fill="#281414"/></g></svg>