<?xml version="1.0" encoding="iso-8859-1"?>
<!-- Generator: Adobe Illustrator 19.0.0, SVG Export Plug-In . SVG Version: 6.00 Build 0)  -->
<svg version="1.1" id="Capa_1" xmlns="http://www.w3.org/2000/svg" xmlns:xlink="http://www.w3.org/1999/xlink" x="0px" y="0px"
	 viewBox="0 0 512 512" style="enable-background:new 0 0 512 512;" xml:space="preserve">
<circle style="fill:#2C5871;" cx="256" cy="256" r="256"/>
<path style="fill:#1C4754;" d="M256,0c-7.933,0-15.777,0.38-23.526,1.086C362.829,12.966,464.948,122.548,464.948,256
	S362.829,499.034,232.474,510.914C240.223,511.62,248.067,512,256,512c141.385,0,256-114.615,256-256S397.385,0,256,0z"/>
<circle style="fill:#E6F1FF;" cx="256" cy="256" r="221.06"/>
<path style="fill:#BFCFD6;" d="M256,34.939c-7.948,0-15.795,0.429-23.526,1.247C343.5,47.932,430.009,141.859,430.009,256
	S343.5,464.068,232.474,475.814c7.731,0.818,15.578,1.247,23.526,1.247c122.089,0,221.061-98.972,221.061-221.061
	S378.089,34.939,256,34.939z"/>
<path style="fill:#66C1FF;" d="M159.806,163.214L233.29,278.71l115.5,73.487c2.226,1.417,4.823-1.18,3.406-3.406l-73.487-115.5
	l-115.496-73.484C160.986,158.389,158.389,160.986,159.806,163.214z"/>
<path style="fill:#FF4C4C;" d="M159.807,163.215L233.29,278.71l45.419-45.419l-115.494-73.483
	C160.988,158.39,158.39,160.988,159.807,163.215z"/>
<circle style="fill:#555A66;" cx="256" cy="256" r="33.03"/>
<g>
	<path style="fill:#2C5871;" d="M377.166,142.576c-1.981,0-3.963-0.756-5.474-2.268c-3.024-3.023-3.024-7.925,0-10.949
		l12.408-12.408c3.023-3.023,7.925-3.023,10.949,0c3.024,3.023,3.024,7.925,0,10.949l-12.408,12.408
		C381.129,141.82,379.148,142.576,377.166,142.576z"/>
	<path style="fill:#2C5871;" d="M122.425,397.317c-1.981,0-3.963-0.756-5.474-2.268c-3.024-3.023-3.024-7.925,0-10.949
		l12.408-12.408c3.023-3.023,7.925-3.023,10.949,0s3.024,7.925,0,10.949L127.9,395.049
		C126.388,396.56,124.407,397.317,122.425,397.317z"/>
	<path style="fill:#2C5871;" d="M389.575,397.317c-1.981,0-3.963-0.756-5.474-2.268l-12.408-12.408
		c-3.024-3.023-3.024-7.925,0-10.949c3.023-3.023,7.925-3.023,10.949,0L395.05,384.1c3.024,3.023,3.024,7.925,0,10.949
		C393.537,396.56,391.556,397.317,389.575,397.317z"/>
	<path style="fill:#2C5871;" d="M134.834,142.576c-1.981,0-3.963-0.756-5.474-2.268L116.951,127.9
		c-3.024-3.023-3.024-7.925,0-10.949c3.023-3.023,7.925-3.023,10.949,0l12.408,12.408c3.024,3.023,3.024,7.925,0,10.949
		C138.796,141.82,136.815,142.576,134.834,142.576z"/>
	<path style="fill:#2C5871;" d="M114.668,275.577c-0.709,2.126-3.331,3.118-6.023,3.118c-2.622,0-5.386-0.992-5.882-3.118
		l-4.535-19.133l-4.606,19.133c-0.496,2.126-3.26,3.118-5.882,3.118c-2.693,0-5.386-0.992-6.024-3.118l-14.031-44.573
		c-0.071-0.213-0.142-0.567-0.142-0.85c0-2.055,3.26-3.685,5.882-3.685c1.417,0,2.693,0.496,3.047,1.842l11.197,38.408l6.023-24.66
		c0.425-1.772,2.48-2.551,4.535-2.551c1.984,0,4.039,0.78,4.465,2.551l6.023,24.66l11.197-38.408
		c0.354-1.346,1.63-1.842,3.047-1.842c2.622,0,5.882,1.63,5.882,3.685c0,0.283-0.071,0.638-0.142,0.85L114.668,275.577z"/>
	<path style="fill:#2C5871;" d="M420.998,248.72h10.771c1.842,0,2.905,1.772,2.905,3.685c0,1.63-0.921,3.543-2.905,3.543h-10.771
		v14.243h20.054c1.842,0,2.905,1.913,2.905,4.11c0,1.913-0.921,3.968-2.905,3.968h-25.228c-2.055,0-4.039-0.992-4.039-2.905v-45.991
		c0-1.913,1.984-2.905,4.039-2.905h25.228c1.984,0,2.905,2.055,2.905,3.968c0,2.197-1.063,4.11-2.905,4.11h-20.054V248.72z"/>
	<path style="fill:#2C5871;" d="M263.262,108.382l-15.235-28.487v28.487c0,1.913-2.339,2.905-4.606,2.905
		c-2.338,0-4.606-0.992-4.606-2.905V62.391c0-1.984,2.268-2.905,4.606-2.905c3.331,0,4.677,0.709,6.874,4.89l13.676,26.432V62.321
		c0-1.984,2.268-2.835,4.606-2.835c2.268,0,4.606,0.85,4.606,2.835v46.061c0,1.913-2.339,2.905-4.606,2.905
		C266.381,111.287,264.467,110.579,263.262,108.382z"/>
	<path style="fill:#2C5871;" d="M263.228,431.434c0-10.63-22.747-7.37-22.747-24.164c0-10.559,9.071-14.173,17.22-14.173
		c4.181,0,13.464,0.992,13.464,5.669c0,1.63-1.134,4.89-3.685,4.89c-2.197,0-3.827-2.693-9.779-2.693
		c-5.102,0-8.008,2.055-8.008,5.457c0,8.787,22.747,5.74,22.747,24.093c0,10.134-7.087,15.378-16.866,15.378
		c-9.283,0-16.369-4.677-16.369-8.787c0-1.984,1.843-4.961,4.039-4.961c2.905,0,4.819,5.457,12.047,5.457
		C259.543,437.599,263.228,435.686,263.228,431.434z"/>
</g>
<g>
</g>
<g>
</g>
<g>
</g>
<g>
</g>
<g>
</g>
<g>
</g>
<g>
</g>
<g>
</g>
<g>
</g>
<g>
</g>
<g>
</g>
<g>
</g>
<g>
</g>
<g>
</g>
<g>
</g>
</svg>
